<?xml version="1.0" encoding="utf-8"?>
<!-- Generator: Adobe Illustrator 26.3.1, SVG Export Plug-In . SVG Version: 6.00 Build 0)  -->
<svg version="1.1" id="Layer_1" xmlns="http://www.w3.org/2000/svg" xmlns:xlink="http://www.w3.org/1999/xlink" x="0px" y="0px"
	 viewBox="0 0 266 73" style="enable-background:new 0 0 266 73;" xml:space="preserve">
<style type="text/css">
	.st0{display:none;fill:#FFFFFF;}
	.st1{display:none;fill:#5CE1E6;}
	.st2{fill:#FFFFFF;}
	.st3{fill:#5CE1E6;}
	.st4{display:none;}
	.st5{display:inline;fill:none;}
	.st6{display:inline;fill:#FFFFFF;}
	.st7{font-family:'Shabnam-Bold';}
	.st8{font-size:47px;}
</style>
<path class="st0" d="M107.5,29.3v28.6h-5.8V45.4H89.5v12.5h-5.7V29.3h5.7v11.6h12.3V29.3H107.5z M123.1,35.1c2.2,0,4.2,0.5,5.9,1.4
	c1.8,0.9,3.1,2.3,4.1,4c1,1.7,1.5,3.8,1.5,6.1c0,2.4-0.5,4.4-1.5,6.1c-1,1.7-2.4,3.1-4.1,4c-1.7,0.9-3.7,1.4-5.9,1.4
	c-2.2,0-4.2-0.5-5.9-1.4c-1.7-0.9-3.1-2.3-4.1-4c-1-1.7-1.5-3.8-1.5-6.1c0-2.4,0.5-4.4,1.5-6.1c1-1.8,2.4-3.1,4.1-4
	C118.9,35.6,120.9,35.1,123.1,35.1z M123.1,40.1c-1.6,0-2.9,0.6-4.1,1.7c-1.1,1.1-1.7,2.7-1.7,4.9c0,2.1,0.6,3.8,1.7,4.9
	c1.1,1.1,2.5,1.7,4.1,1.7c1.6,0,2.9-0.6,4.1-1.7c1.1-1.1,1.7-2.8,1.7-4.9c0-2.1-0.6-3.8-1.7-4.9C126,40.7,124.7,40.1,123.1,40.1z
	 M149,35.1c2.2,0,4.2,0.5,5.9,1.4c1.8,0.9,3.1,2.3,4.1,4c1,1.7,1.5,3.8,1.5,6.1c0,2.4-0.5,4.4-1.5,6.1c-1,1.7-2.4,3.1-4.1,4
	c-1.7,0.9-3.7,1.4-5.9,1.4c-2.2,0-4.2-0.5-5.9-1.4c-1.7-0.9-3.1-2.3-4.1-4c-1-1.7-1.5-3.8-1.5-6.1c0-2.4,0.5-4.4,1.5-6.1
	c1-1.8,2.4-3.1,4.1-4C144.9,35.6,146.8,35.1,149,35.1z M149,40.1c-1.6,0-2.9,0.6-4.1,1.7c-1.1,1.1-1.7,2.7-1.7,4.9
	c0,2.1,0.6,3.8,1.7,4.9c1.1,1.1,2.5,1.7,4.1,1.7c1.6,0,2.9-0.6,4.1-1.7c1.1-1.1,1.7-2.8,1.7-4.9c0-2.1-0.6-3.8-1.7-4.9
	C152,40.7,150.6,40.1,149,40.1z"/>
<path class="st1" d="M180.6,43.1c1.7,0.4,3.1,1.2,4.1,2.5c1.1,1.3,1.6,2.8,1.6,4.5c0,2.4-0.8,4.3-2.4,5.7c-1.6,1.4-3.9,2.1-7,2.1
	h-12.3V29.3h12.1c2.9,0,5.1,0.6,6.7,1.9c1.6,1.3,2.4,3.1,2.4,5.4c0,1.8-0.5,3.2-1.4,4.4C183.3,42,182.1,42.8,180.6,43.1z
	 M170.3,41.3h5.2c1.4,0,2.5-0.3,3.2-0.9c0.8-0.6,1.1-1.6,1.1-2.8c0-1.2-0.4-2.1-1.1-2.8c-0.7-0.6-1.9-1-3.4-1h-5.1V41.3z
	 M175.7,53.2c1.5,0,2.7-0.3,3.5-1c0.8-0.7,1.2-1.7,1.2-2.9c0-1.3-0.4-2.2-1.3-2.9c-0.8-0.7-2-1.1-3.5-1.1h-5.4v7.9H175.7z
	 M199.1,35.1c1.9,0,3.5,0.4,4.9,1.3c1.4,0.9,2.3,2.1,2.9,3.6v-4.7h5.7v22.5h-5.7v-4.7c-0.6,1.5-1.5,2.7-2.9,3.7
	c-1.4,0.9-3,1.3-4.9,1.3c-1.9,0-3.6-0.5-5.1-1.4s-2.7-2.2-3.6-4c-0.8-1.8-1.3-3.8-1.3-6.2c0-2.4,0.4-4.4,1.3-6.1
	c0.9-1.8,2.1-3.1,3.6-4C195.5,35.6,197.2,35.1,199.1,35.1z M200.9,40.1c-1.8,0-3.2,0.6-4.3,1.7s-1.6,2.8-1.6,4.8
	c0,2,0.5,3.6,1.6,4.8c1.1,1.1,2.5,1.7,4.3,1.7c1.7,0,3.2-0.6,4.3-1.7c1.1-1.2,1.7-2.8,1.7-4.7c0-2-0.6-3.6-1.7-4.7
	C204,40.7,202.6,40.1,200.9,40.1z M231.1,35.1c2.6,0,4.7,0.9,6.2,2.6c1.5,1.7,2.3,4.1,2.3,7.2v13.1H234V45.5c0-1.8-0.5-3.2-1.4-4.1
	c-0.9-1-2.2-1.5-3.8-1.5c-1.6,0-2.9,0.5-3.9,1.6c-1,1.1-1.5,2.6-1.5,4.5v11.9h-5.7V35.4h5.7v4.5c0.6-1.5,1.6-2.7,2.9-3.5
	C227.7,35.5,229.3,35.1,231.1,35.1z M257.8,57.9l-7.4-9.8v9.8h-5.7v-30h5.7v16.9l7.4-9.3h6.8l-9.5,11.2l9.7,11.3H257.8z"/>
<path class="st2" d="M229.1,0c-7.1,0-14.1,2.1-20,6.1s-10.6,9.6-13.3,16.2c-2.7,6.6-3.4,13.8-2.1,20.8c1.4,7,4.8,13.4,9.9,18.5
	c5,5,11.5,8.5,18.5,9.9c7,1.4,14.2,0.7,20.8-2.1c6.6-2.7,12.2-7.4,16.2-13.3c4-5.9,6.1-12.9,6.1-20h-18c0,3.6-1.1,7.1-3,10
	c-2,3-4.8,5.3-8.1,6.6c-3.3,1.4-6.9,1.7-10.4,1c-3.5-0.7-6.7-2.4-9.2-4.9c-2.5-2.5-4.2-5.7-4.9-9.2c-0.7-3.5-0.3-7.1,1-10.4
	c1.4-3.3,3.7-6.1,6.6-8.1c3-2,6.5-3,10-3V0z"/>
<path class="st3" d="M229.1,0c-4.7,0-9.4,0.9-13.8,2.7c-4.4,1.8-8.4,4.5-11.7,7.8c-3.3,3.3-6,7.3-7.8,11.7
	c-1.8,4.4-2.7,9.1-2.7,13.8h18c0-2.4,0.5-4.7,1.4-6.9c0.9-2.2,2.2-4.2,3.9-5.9c1.7-1.7,3.7-3,5.9-3.9c2.2-0.9,4.5-1.4,6.9-1.4V0z"/>
<circle class="st3" cx="229.1" cy="36.1" r="11.3"/>
<path class="st2" d="M240.4,36.1c0-1.5-0.3-2.9-0.9-4.3c-0.6-1.4-1.4-2.6-2.4-3.7c-1-1-2.3-1.9-3.7-2.4c-1.4-0.6-2.8-0.9-4.3-0.9
	c-1.5,0-2.9,0.3-4.3,0.9c-1.4,0.6-2.6,1.4-3.7,2.4c-1,1-1.9,2.3-2.4,3.7c-0.6,1.4-0.9,2.8-0.9,4.3h11.3H240.4z"/>
<g class="st4">
	<rect x="88.4" y="11.3" class="st5" width="92.3" height="41"/>
	<text transform="matrix(1 0 0 1 97.2911 46.5509)" class="st6 st7 st8">یس</text>
</g>
<g>
	<path class="st3" d="M42.6,50.8H26c-3.5,0-6.2-0.9-8-2.8c-1.8-1.9-2.7-4.6-2.7-8.1v-4.6v-0.8H16h4h0.8v0.8v4.6
		c0,1.8,0.4,3.1,1.3,3.9c0.4,0.4,0.9,0.7,1.6,1c0.6,0.2,1.4,0.3,2.3,0.3l16.6,0c1.8,0,3-0.2,3.8-0.6c0.7-0.4,1.1-1,1.1-1.7
		c0-0.2-0.2-0.7-0.6-1.3c-0.4-0.7-1-1.4-1.8-2.3l-7.4-8.4c-0.4-0.5-0.8-1-1-1.7c-0.2-0.6-0.3-1.3-0.3-2c0-0.7,0.1-1.4,0.4-1.9
		c0.3-0.6,0.6-1.1,1.1-1.5c0.5-0.4,1.1-0.7,1.7-1L54.1,18l1.1-0.3v1.1v4.1v0.6l-0.6,0.2l-12,3.9l12.3,14.2c1.9,2.2,3.4,3.3,4.8,3.3
		h0.6c0.3,0,0.6,0.1,0.8,0.2c0.2,0.2,0.3,0.4,0.4,0.7c0.1,0.3,0.1,0.6,0.1,0.8c0,0.2,0,0.5,0,0.8c0,0.1,0,0.1,0,0.2V48
		c0,0,0,0.1,0,0.2c0,0.2,0,0.4,0,0.5c0,0.1,0,0.3,0,0.6c0,0.2-0.1,0.4-0.1,0.6s-0.1,0.3-0.2,0.4c-0.1,0.2-0.2,0.3-0.4,0.3
		c-0.2,0.1-0.3,0.1-0.6,0.1h-0.3c-3,0-5.6-1.3-7.9-3.9c-0.2,0.4-0.5,0.7-0.8,1.1c-0.3,0.3-0.6,0.6-1,0.9c-0.4,0.3-0.8,0.5-1.2,0.7
		c-0.4,0.2-0.9,0.4-1.4,0.6c-0.5,0.2-1,0.3-1.5,0.4s-1.1,0.2-1.7,0.2S43.3,50.8,42.6,50.8z"/>
	<path class="st3" d="M60,50.8c-0.7,0-1.2-0.3-1.5-0.8c-0.3-0.5-0.5-1.2-0.5-2v-0.3c0-0.8,0.2-1.4,0.5-1.9c0.3-0.5,0.8-0.8,1.5-0.8
		h4.7c1.4,0,2.3-0.3,2.9-0.8c0.6-0.6,0.9-1.5,0.9-2.8v-6.7v-0.8h0.8h4h0.8v0.8v6.8c0,3-0.8,5.3-2.4,6.9c-1.6,1.6-4,2.4-7,2.4H60z
		 M66.3,25.1l2.1-2.1c0.7-0.7,1.4-0.8,2-0.1l2.2,2.2c0.7,0.7,0.6,1.4-0.1,2.1l-2.1,2.1c-0.7,0.7-1.4,0.7-2,0L66.2,27
		C65.6,26.4,65.6,25.7,66.3,25.1z"/>
	<path class="st3" d="M87.2,50.8h-1.7c-2.7,0-4.8-0.8-6.2-2.4c-1.4-1.6-2.1-3.9-2.1-7V21v-0.8h0.8h3.9h0.8V21v20.4
		c0,0.9,0.1,1.6,0.3,2.2c0.2,0.5,0.5,0.9,0.9,1.1c0.4,0.2,0.9,0.3,1.6,0.3h1.7c0.3,0,0.6,0.1,0.8,0.2c0.2,0.2,0.3,0.4,0.4,0.7
		c0.1,0.3,0.1,0.6,0.1,0.8c0,0.2,0,0.5,0,0.8c0,0.1,0,0.1,0,0.2V48c0,0.8-0.1,1.3-0.2,1.7C88.1,50.4,87.7,50.8,87.2,50.8z"/>
	<path class="st3" d="M86.9,50.8c-0.7,0-1.2-0.3-1.5-0.8c-0.3-0.5-0.5-1.2-0.5-2v-0.3c0-0.8,0.2-1.4,0.5-1.9
		c0.3-0.5,0.8-0.8,1.5-0.8h4.7c1.4,0,2.3-0.3,2.9-0.8c0.6-0.6,0.9-1.5,0.9-2.8v-6.7v-0.8h0.8h4h0.8v0.8v6.8c0,3-0.8,5.3-2.4,6.9
		c-1.6,1.6-4,2.4-7,2.4H86.9z M89.4,57.5l2.1-2.1c0.7-0.7,1.4-0.8,2-0.1l2.2,2.2c0.7,0.7,0.6,1.4-0.1,2.1l-2.1,2.1
		c-0.7,0.7-1.4,0.7-2,0l-2.2-2.2C88.7,58.8,88.7,58.1,89.4,57.5z"/>
	<path class="st2" d="M140.9,50.8h-1.6v1c0,3.1-1.2,5.4-3.5,7c-2.3,1.6-5.6,2.3-9.9,2.3h-2c-6.7,0-11-2.3-13.1-6.8
		c-0.8-1.9-1.2-4.1-1.3-6.6v-7.8v-0.8h0.8l4,0h0.8v0.8v7.8c0,2.6,0.7,4.6,2.1,5.8c1.4,1.3,3.6,1.9,6.6,1.9h2.2
		c1.8,0,3.4-0.2,4.6-0.5c1.1-0.3,2-0.7,2.5-1.3c0.5-0.5,0.7-1.2,0.7-2v-0.8h-5c-0.3,0-0.6-0.1-0.9-0.2c-0.3-0.1-0.5-0.3-0.7-0.6
		c-0.2-0.3-0.4-0.5-0.5-0.8c-0.1-0.3-0.3-0.6-0.4-1c-0.1-0.3-0.1-0.5-0.2-0.7c0-0.2-0.1-0.4-0.1-0.7c0-0.3,0-0.5,0-0.7
		s0.1-0.4,0.3-0.6c0.1-0.2,0.3-0.3,0.6-0.4l0.1,0h0.1h13.7c0.3,0,0.6,0.1,0.8,0.2c0.2,0.2,0.3,0.4,0.4,0.7c0.1,0.3,0.1,0.6,0.1,0.8
		c0,0.2,0,0.5,0,0.8c0,0.1,0,0.1,0,0.2V48c0,0.2,0,0.4,0,0.5c0,0.2,0,0.3,0,0.4c0,0.3-0.1,0.6-0.1,0.8c0,0.1-0.1,0.2-0.1,0.3
		c0,0.1-0.1,0.2-0.2,0.3C141.5,50.7,141.2,50.8,140.9,50.8z"/>
	<path class="st2" d="M165.4,41.4c0,1.3,0.3,2.3,0.8,2.8c0.5,0.6,1.4,0.8,2.5,0.8c0.6,0,1.1-0.1,1.5-0.3c0.4-0.2,0.7-0.6,0.8-1.1
		c0.2-0.5,0.3-1.2,0.3-2.1v-6.8v-0.8h0.8h4h0.8v0.8v7c0,2-0.3,3.6-0.9,5c-0.6,1.4-1.5,2.4-2.7,3.1c-1.2,0.7-2.7,1.1-4.4,1.1
		c-2.7,0-4.8-0.8-6.1-2.5c-1.3,1.7-3.4,2.5-6.3,2.5c-2.8,0-4.8-0.9-6.1-2.6c-1.6,1.7-4.1,2.6-7.5,2.6h-2.2c-0.7,0-1.2-0.3-1.5-0.8
		c-0.3-0.5-0.5-1.2-0.5-2v-0.3c0-0.8,0.1-1.4,0.4-1.9c0.4-0.6,0.9-0.8,1.6-0.8h2.2c1.6,0,2.8-0.3,3.5-0.9c0.7-0.6,1.1-1.5,1.1-2.8
		v-6v-0.8h0.8h4h0.8v0.8l0,6c0,0.4,0,0.7,0.1,1c0,0.3,0.1,0.6,0.2,0.8c0.1,0.2,0.2,0.5,0.3,0.7c0.1,0.2,0.3,0.4,0.5,0.5
		c0.2,0.1,0.4,0.3,0.6,0.3c0.2,0.1,0.5,0.2,0.8,0.2c0.3,0,0.6,0.1,1,0.1c0.6,0,1.1-0.1,1.5-0.2c0.4-0.1,0.7-0.3,1-0.6
		c0.3-0.3,0.5-0.7,0.6-1.1c0.1-0.5,0.2-1,0.2-1.7l0-6v-0.8h0.8h4h0.8v0.8L165.4,41.4z"/>
</g>
</svg>
